<svg width="120" height="120" viewBox="0 0 120 120" fill="none" xmlns="http://www.w3.org/2000/svg">
<path d="M13.545 59.014C20.53 52.782 25.245 43.992 29.178 41.036ZM12.899 59.041C17.178 53.747 22.361 48.771 29.642 39.894ZM5.63 69.575C14.414 62.549 23.986 55.44 35.486 40.981ZM6.989 72.175C13.646 63.895 19.323 57.512 33.407 40.182ZM8.587 75.381C16.868 66.163 25.758 54.936 39.597 38.54ZM9.651 75.035C17.244 65.322 25.336 57.628 40.405 40.065ZM15.099 75.423C23.357 66.63 34.507 53.869 46.294 38.232ZM13.718 76.671C23.469 66.507 33.89 55.331 46.235 37.944ZM17.867 75.221C27.424 64.646 38.24 53.209 68.015 22.699ZM19.42 76.289C33.541 58.797 49.545 40.747 66.243 21.508ZM22.864 77.536C36.491 62.103 45.53 47.913 75.273 15.677ZM24.225 76.423C40.308 55.894 58.699 36.599 75.744 15.488ZM30.38 75.816C46.083 58.367 63.684 38.027 83.245 15.583ZM28.953 77.267C48.702 55.79 66.241 32.404 83.681 14.643ZM35.725 76.982C40.94 67.859 47.483 61.208 68.532 36.949ZM35.106 78.142C46.046 61.9 58.874 48.733 69.016 37.402ZM67.337 37.496C75.672 31.753 81.789 23.883 89.954 11.079ZM67.495 39.085C75.836 29.773 82.113 23.32 90.184 12.558ZM37.06 79.758C46.227 67.407 59.485 54.763 64.639 46.365ZM37.412 80.434C47.626 67.93 59.099 53.679 65.012 46.773ZM76.111 32.99C84.474 26.92 89.827 20.696 98.851 8.206ZM77.215 35.472C83.52 26.746 89.686 20.66 99.689 8.821ZM39.617 80.92C50.439 71.66 56.734 63.908 67.349 51.502ZM39.826 83.557C48.886 72.802 56.847 64.571 67.637 50.028ZM78.528 37.6C88.247 26.814 99.142 14.868 104.21 6.177ZM80.056 37.371C88.411 26.294 97.365 17.787 104.728 8.763ZM42.204 86.254C51.345 73.358 65.654 60.454 68.111 55.004ZM42.807 86.045C51.522 76.064 60.495 64.813 69.243 54.826ZM83.632 38.293C92.151 28.849 100.287 21.888 108.577 10.025ZM84.362 38.551C93.672 28.606 101.227 18.643 110.098 7.893ZM45.848 88.709C54.772 77.267 63.555 64.829 72.833 58.13ZM45.912 89.101C54.985 78.151 63.21 67.816 73.947 57.002ZM85.451 43.443C95.157 32.523 108.723 18.208 113.008 12.399ZM85.764 43.411C90.219 35.464 96.377 29.331 113.034 11.644ZM45.34 96.102C52.143 85.946 60.192 76.165 77.153 56.287ZM45.576 95.475C56.099 84.369 64.161 72.93 76.996 57.658ZM87.033 47.799C96.165 33.986 106.146 25.279 111.047 16.758ZM87.924 46.412C95.653 36.986 103.318 27.623 113.829 17.82ZM44.173 100.324C71.204 68.438 97.794 40.828 112.534 21.453ZM46.372 100.279C70.234 71.489 95.615 44.62 113.013 21.882ZM44.852 106.047C64.45 88.455 82.67 65.843 112.761 28.986ZM46.297 107.763C63.783 86.008 84.24 64.393 112.41 30.543ZM46.205 110.672C67.085 85.594 89.855 61.918 111.115 39.726ZM46.08 112.55C67.64 86.403 89.185 63.875 110.129 38.709ZM52.036 113.056C58.28 104.65 68.512 94.986 83.873 73.59ZM50.346 113.956C59.173 102.613 68.275 91.756 83.494 75.243ZM58.015 112.669C64.04 100.792 72.69 93.493 84.087 83.307ZM56.437 110.945C65.469 101.838 73.545 94.067 83.519 81.265ZM62.483 108.507C69.926 103.513 77.83 93.247 80.983 90.219ZM63.365 109.355C68.298 104.174 72.984 97.96 80.073 90.88Z" fill="#FB0909"/>
<path d="M46.575 37.92C62.422 18.894 84.168 8.54201 107.882 8.41301ZM46.838 36.867C61.672 17.301 84.231 8.58001 108.901 8.70501ZM108.75 7.50001C110.046 7.57901 110.731 11.086 112.982 11.009ZM107.634 6.23401C110.755 7.79901 110.457 11.29 111.369 9.00401ZM112.5 11.25C114.131 35.92 99.256 59.828 81.799 72.81ZM110.526 11.441C114.371 35.467 99.602 57.924 83.433 73.211ZM82.08 73.43C83.358 94.836 70.596 113.999 50.081 114.233ZM83.236 74.874C85.297 92.119 67.5 110.699 50.017 111.112ZM48.75 112.5C44.81 112.071 46.425 112.175 46.99 106.811ZM50.116 111.609C47.312 112.936 43.577 110.939 43.959 108.867ZM46.528 108.232C45.71 98.669 45.207 92.097 43.74 88.232ZM44.292 109.746C44.458 100.081 45.387 93.177 45.039 87.458ZM45 88.095C42.024 85.628 36.239 80.799 30.775 76.517ZM45.126 86.773C41.63 82.956 34.36 79.985 31.651 74.203ZM32.238 75.959C24.978 74.471 19.07 73.912 12.098 76.594ZM32.632 74.655C24.907 75.134 16.898 74.416 10.345 75.607ZM11.25 75C7.31401 76.672 7.38401 73.645 5.62201 72.259ZM10.631 75.781C10.147 75.11 5.57801 72.394 7.61701 72.996ZM7.50001 71.25C9.08501 52.29 27.005 33.18 46.557 36.321ZM6.06601 72.597C5.68901 50.205 25.574 33.897 47.921 36.995ZM75 33.75C68.175 33.89 59.099 44.062 66.145 48.946ZM75.909 32.277C65.179 33.635 62.984 45.17 65.399 50.703ZM65.257 50.625C67.832 54.549 72.502 54.765 74.052 58.184ZM67.163 48.767C67.167 55.39 69.444 57.297 74.67 58.035ZM75 56.25C82.293 57.064 90.037 48.561 84.699 37.952ZM73.276 56.372C84.504 57.915 87.292 46.483 84.673 37.155ZM84.743 39.375C82.713 34.542 78.522 35.064 76.364 34.982ZM85.183 39.408C82.651 35.522 77.783 35.354 74.791 33.9Z" fill="#FB0909"/>
<path d="M46.575 37.92C62.422 18.894 84.168 8.54201 107.882 8.41301M46.838 36.867C61.672 17.301 84.231 8.58001 108.901 8.70501M108.75 7.50001C110.046 7.57901 110.731 11.086 112.982 11.009M107.634 6.23401C110.755 7.79901 110.457 11.29 111.369 9.00401M112.5 11.25C114.131 35.92 99.256 59.828 81.799 72.81M110.526 11.441C114.371 35.467 99.602 57.924 83.433 73.211M82.08 73.43C83.358 94.836 70.596 113.999 50.081 114.233M83.236 74.874C85.297 92.119 67.5 110.699 50.017 111.112M48.75 112.5C44.81 112.071 46.425 112.175 46.99 106.811M50.116 111.609C47.312 112.936 43.577 110.939 43.959 108.867M46.528 108.232C45.71 98.669 45.207 92.097 43.74 88.232M44.292 109.746C44.458 100.081 45.387 93.177 45.039 87.458M45 88.095C42.024 85.628 36.239 80.799 30.775 76.517M45.126 86.773C41.63 82.956 34.36 79.985 31.651 74.203M32.238 75.959C24.978 74.471 19.07 73.912 12.098 76.594M32.632 74.655C24.907 75.134 16.898 74.416 10.345 75.607M11.25 75C7.31401 76.672 7.38401 73.645 5.62201 72.259M10.631 75.781C10.147 75.11 5.57801 72.394 7.61701 72.996M7.50001 71.25C9.08501 52.29 27.005 33.18 46.557 36.321M6.06601 72.597C5.68901 50.205 25.574 33.897 47.921 36.995M75 33.75C68.175 33.89 59.099 44.062 66.145 48.946M75.909 32.277C65.179 33.635 62.984 45.17 65.399 50.703M65.257 50.625C67.832 54.549 72.502 54.765 74.052 58.184M67.163 48.767C67.167 55.39 69.444 57.297 74.67 58.035M75 56.25C82.293 57.064 90.037 48.561 84.699 37.952M73.276 56.372C84.504 57.915 87.292 46.483 84.673 37.155M84.743 39.375C82.713 34.542 78.522 35.064 76.364 34.982M85.183 39.408C82.651 35.522 77.783 35.354 74.791 33.9" stroke="#CD1A1A"/>
<path d="M26.299 86.216C27.705 83.17 26.852 79.575 25.175 79.319M26.845 86.239C27.11 85.088 30.483 79.801 25.842 78.954M25.635 79.746C22.802 79.66 23.805 79.413 22.518 79.725M26.27 78.934C24.04 79.663 23.002 78.839 22.682 81.736M21.814 80.196C12.022 85.967 8.58297 94.076 9.77597 105.765M22.945 79.435C13.494 86.042 10.314 94.077 12.646 105.713M11.564 105.329C12.939 106.077 14.548 108.223 15.529 109.272M12.565 104.04C11.278 107.12 11.248 107.901 15.443 109.682M14.689 108.467C24.342 110.896 33.24 105.59 40.608 98.928M16.553 106.938C23.01 107.786 34.219 104.527 41.68 96.872M39.799 98.202C39.618 96.532 40.728 91.658 36.833 93.656M40.154 97.98C41.703 95.431 42.302 91.173 37.052 92.989M37.35 92.18C37.214 92.321 34.021 93.792 33.245 91.951M36.723 93.228C37.757 92.874 36.821 90.651 32.577 91.599M33.789 93.713C29.631 96.858 25.24 102.432 20.515 100.222M34.062 94.837C29.107 97.458 23.974 102.348 16.794 100.173M18.749 101.27C20.364 94.46 21.316 87.889 24.89 85.372M19.279 101.186C16.917 96.577 22.918 88.615 25.937 84.706" stroke="#CD1A1A"/>
<path d="M41.3156 65.6143C41.6386 65.0373 43.4856 61.6753 45.5416 58.9203ZM40.1976 66.3683C41.3476 65.0343 43.2386 63.7783 45.9466 59.5623ZM39.9506 72.0523C41.9736 70.0313 46.2676 65.0183 50.3916 59.9953ZM40.6326 71.9723C43.7376 68.2833 46.6236 65.5283 51.3716 59.0093ZM41.5516 77.6553C44.0336 74.7423 48.2036 70.3373 57.0806 58.4373ZM40.3266 77.2433C45.8606 71.9763 51.2336 65.7583 56.4076 59.4843ZM43.2986 80.1523C50.6996 72.9733 55.9056 65.5193 61.6656 60.5953ZM45.0966 80.2193C51.0676 72.4513 56.9626 65.9353 63.3566 59.3413ZM51.7826 80.9013C56.2036 72.7203 61.7296 66.3203 65.9826 60.8933ZM49.3596 79.9193C55.1556 74.8293 58.9626 69.1533 65.0116 61.5473ZM54.4516 79.3013C57.2816 78.1593 60.8786 71.9823 69.8726 62.6813ZM55.8026 80.4943C57.9166 75.7583 62.1596 71.9583 68.2836 65.3793ZM61.6956 78.7033C64.1776 77.5263 66.4906 74.1653 69.5826 69.6353ZM60.7616 79.8363C62.9686 78.2183 64.6426 75.6593 68.7326 69.6663Z" fill="#E91010"/>
<path d="M65.9506 62.0753C65.6836 62.3243 63.5746 61.5003 63.2016 59.3013ZM64.9066 60.4253C67.5006 61.7273 65.3766 61.6913 61.5746 59.3853ZM63.4246 59.5493C60.0786 57.1803 53.2986 58.3753 53.1666 59.1533ZM62.6436 58.6843C60.7956 60.4063 50.8386 59.9253 54.2226 61.2323ZM52.2626 58.9523C53.4536 59.9793 43.4026 57.6803 40.7466 58.0383ZM51.0416 59.8883C51.4536 59.7323 44.1506 58.1663 43.1896 61.4673ZM41.1006 59.5493C38.7866 59.3083 38.9206 59.2033 38.9326 61.7063ZM42.2606 61.0263C42.1446 58.3293 37.5116 61.5893 40.8656 60.9443ZM38.5746 62.0753C39.0126 64.8153 37.6136 68.3853 38.0066 68.8963ZM38.3616 60.8573C36.2906 64.0443 38.0046 67.7813 40.0986 67.4323ZM37.9776 68.9523C38.3786 67.7583 37.3446 72.9013 38.2666 74.0413ZM36.0856 68.3623C35.6986 68.3683 36.6166 74.8403 38.9996 77.5593ZM38.5746 75.8293C38.7736 77.7793 39.5836 79.9083 43.0556 78.2613ZM38.5406 75.8703C38.9416 77.8993 37.7626 76.3193 41.0616 77.5623ZM41.1006 78.3553C45.1186 78.1703 54.2316 78.1983 53.2386 79.7013ZM40.2636 79.4103C42.1176 80.8763 52.1646 77.2103 50.3336 80.0423ZM52.2626 78.9523C51.9746 79.9623 61.0866 79.7573 63.7956 76.3883ZM54.0206 77.0023C50.3636 80.6803 63.0046 77.6403 61.1736 79.7413ZM63.4246 78.3553C64.9116 78.5123 67.5426 76.9873 64.9986 74.4923ZM63.9176 79.8243C65.9896 76.0503 64.8366 74.9663 68.2126 74.1913ZM65.9506 75.8293C66.5036 72.0153 66.4806 70.1103 66.9916 69.3393ZM66.4266 75.7773C64.3406 71.5443 65.3336 70.3523 65.0546 68.7763ZM66.5476 68.9523C67.3026 69.3073 65.2546 62.7853 67.6896 61.4543ZM64.6656 67.3533C66.4406 66.9363 66.4436 65.6493 64.6586 63.1783Z" fill="#E91010"/>
<path d="M65.9506 62.0753C65.6836 62.3243 63.5746 61.5003 63.2016 59.3013M64.9066 60.4253C67.5006 61.7273 65.3766 61.6913 61.5746 59.3853M63.4246 59.5493C60.0786 57.1803 53.2986 58.3753 53.1666 59.1533M62.6436 58.6843C60.7956 60.4063 50.8386 59.9253 54.2226 61.2323M52.2626 58.9523C53.4536 59.9793 43.4026 57.6803 40.7466 58.0383M51.0416 59.8883C51.4536 59.7323 44.1506 58.1663 43.1896 61.4673M41.1006 59.5493C38.7866 59.3083 38.9206 59.2033 38.9326 61.7063M42.2606 61.0263C42.1446 58.3293 37.5116 61.5893 40.8656 60.9443M38.5746 62.0753C39.0126 64.8153 37.6136 68.3853 38.0066 68.8963M38.3616 60.8573C36.2906 64.0443 38.0046 67.7813 40.0986 67.4323M37.9776 68.9523C38.3786 67.7583 37.3446 72.9013 38.2666 74.0413M36.0856 68.3623C35.6986 68.3683 36.6166 74.8403 38.9996 77.5593M38.5746 75.8293C38.7736 77.7793 39.5836 79.9083 43.0556 78.2613M38.5406 75.8703C38.9416 77.8993 37.7626 76.3193 41.0616 77.5623M41.1006 78.3553C45.1186 78.1703 54.2316 78.1983 53.2386 79.7013M40.2636 79.4103C42.1176 80.8763 52.1646 77.2103 50.3336 80.0423M52.2626 78.9523C51.9746 79.9623 61.0866 79.7573 63.7956 76.3883M54.0206 77.0023C50.3636 80.6803 63.0046 77.6403 61.1736 79.7413M63.4246 78.3553C64.9116 78.5123 67.5426 76.9873 64.9986 74.4923M63.9176 79.8243C65.9896 76.0503 64.8366 74.9663 68.2126 74.1913M65.9506 75.8293C66.5036 72.0153 66.4806 70.1103 66.9916 69.3393M66.4266 75.7773C64.3406 71.5443 65.3336 70.3523 65.0546 68.7763M66.5476 68.9523C67.3026 69.3073 65.2546 62.7853 67.6896 61.4543M64.6656 67.3533C66.4406 66.9363 66.4436 65.6493 64.6586 63.1783" stroke="#CD1A1A"/>
<path d="M50.0456 70.7103C50.3426 68.9703 51.7816 67.9873 53.4536 66.9393ZM49.9246 70.4363C50.4996 69.5833 51.3356 68.7863 52.8796 66.5303ZM51.6016 74.4583C53.0506 72.2503 54.3866 70.5493 57.0896 68.5393ZM51.1366 74.3863C52.6286 73.1723 53.7746 72.4513 56.7626 68.8413Z" fill="#E91010"/>
<path d="M49.2726 73.2282C50.3656 71.5432 53.2066 70.7832 57.0906 68.4192ZM49.6766 73.1872C51.5156 71.5492 53.8396 70.4792 56.6846 69.1362ZM56.2036 69.7942C55.8046 68.7052 52.6806 67.6182 49.9206 65.1872ZM56.8876 68.8872C54.7196 67.4922 53.2846 66.4212 49.5826 64.4642ZM49.8756 64.7292C48.9746 67.1662 49.8636 70.2912 49.5816 73.7152ZM49.7216 64.3752C49.3536 67.2272 49.4376 70.5682 49.6156 73.5522Z" fill="#E91010"/>
<path d="M49.2726 73.2282C50.3656 71.5432 53.2066 70.7832 57.0906 68.4192M49.6766 73.1872C51.5156 71.5492 53.8396 70.4792 56.6846 69.1362M56.2036 69.7942C55.8046 68.7052 52.6806 67.6182 49.9206 65.1872M56.8876 68.8872C54.7196 67.4922 53.2846 66.4212 49.5826 64.4642M49.8756 64.7292C48.9746 67.1662 49.8636 70.2912 49.5816 73.7152M49.7216 64.3752C49.3536 67.2272 49.4376 70.5682 49.6156 73.5522" stroke="#CD1A1A"/>
</svg>
